<svg width="120" height="28" viewBox="0 0 120 28" fill="none" xmlns="http://www.w3.org/2000/svg">
<g clip-path="url(#clip0_42_23554)">
<path d="M103.814 13.9993C103.814 9.57181 107.187 6.45148 111.657 6.45148C116.127 6.45148 119.5 9.57181 119.5 13.9993C119.5 18.3425 116.127 21.5471 111.657 21.5471C107.187 21.5471 103.814 18.3846 103.814 13.9993ZM115.073 13.9993C115.073 11.9331 113.765 10.4151 111.699 10.4151C109.633 10.4151 108.326 11.9331 108.326 13.9993C108.326 16.0655 109.633 17.5835 111.699 17.5835C113.765 17.5835 115.073 16.1076 115.073 13.9993ZM100.862 10.4995C101.158 11.0898 101.284 11.7223 101.284 12.397C101.284 13.9993 100.441 15.4751 99.0914 16.6136C100.947 17.4991 102.043 19.6496 102.043 21.6736C102.043 25.4686 98.9649 27.9986 94.2844 27.9986C89.6039 27.9986 86.5258 25.5108 86.5258 21.6736C86.5258 19.6074 87.6221 17.5413 89.4774 16.6136C88.0859 15.4751 87.2848 13.9993 87.2848 12.397C87.2848 9.06581 89.8991 6.62015 94.0314 6.62015C96.4771 6.62015 97.1939 7.04181 98.5854 7.04181C99.5131 7.04181 100.146 6.91531 101.284 6.32498C101.664 6.11415 101.959 6.02982 102.212 6.02982C102.76 6.02982 103.055 6.57798 103.055 7.25265C103.097 8.72848 102.423 9.95131 100.862 10.4995ZM97.6999 21.5471C97.6999 19.8604 96.3927 18.6798 94.3266 18.6798C92.2604 18.6798 90.9532 19.8183 90.9532 21.5471C90.9532 23.1494 92.3869 24.4144 94.3266 24.4144C96.2241 24.4144 97.6999 23.1494 97.6999 21.5471ZM91.5857 12.65C91.5857 14.0836 92.8086 15.2221 94.2844 15.2221C95.8024 15.2221 96.9831 14.0836 96.9831 12.65C96.9831 11.132 95.8867 10.0778 94.2844 10.0778C92.7242 10.0778 91.5857 11.0898 91.5857 12.65ZM84.5018 14.2945V19.5653C84.5018 20.5773 84.1223 20.9989 83.0259 20.9989H81.5501C80.4538 20.9989 80.0743 20.5773 80.0743 19.5653V14.421C80.0743 13.1138 79.8634 12.1861 79.3996 11.5958C78.8936 10.9633 78.1346 10.626 77.1648 10.626C76.2371 10.626 75.3938 10.9633 74.8456 11.5958C74.3396 12.1861 74.0023 13.1138 74.0023 14.3788V19.5231C74.0023 20.5773 73.5806 20.9568 72.5265 20.9568H71.0506C70.0386 20.9568 69.5748 20.5773 69.5748 19.5231V7.71648C69.5748 7.04181 69.9121 6.74665 70.4181 6.74665C71.1771 6.74665 72.2313 7.37915 73.0325 8.60198C74.2131 7.21048 76.0263 6.49365 77.7973 6.49365C79.9478 6.49365 81.6766 7.25265 82.8151 8.51764C83.9536 9.82481 84.5018 11.5115 84.5018 14.2945ZM61.4788 2.40349C61.4788 1.05416 62.5752 0 64.0088 0C65.3582 0 66.5388 1.05416 66.5388 2.40349C66.5388 3.71066 65.3582 4.80699 64.0088 4.80699C62.5752 4.80699 61.4788 3.71066 61.4788 2.40349ZM61.774 19.5653V8.47548C61.774 7.46348 62.1535 7.04181 63.2498 7.04181H64.7257C65.822 7.04181 66.2015 7.46348 66.2015 8.47548V19.5653C66.2015 20.5773 65.822 20.9989 64.7257 20.9989H63.2498C62.1535 20.9989 61.774 20.5773 61.774 19.5653ZM53.9732 19.5653V5.65032C53.9732 2.15049 55.955 0.168666 57.5573 0.168666C58.0633 0.168666 58.4007 0.505999 58.4007 1.1385V19.5231C58.4007 20.5773 57.979 20.9568 56.9248 20.9568H55.449C54.437 20.9989 53.9732 20.6194 53.9732 19.5653ZM35.7572 13.9993C35.7572 9.57181 39.1306 6.45148 43.6002 6.45148C48.0699 6.45148 51.4432 9.57181 51.4432 13.9993C51.4432 18.3425 48.0699 21.5471 43.6002 21.5471C39.1306 21.5471 35.7572 18.3846 35.7572 13.9993ZM46.9735 13.9993C46.9735 11.9331 45.6664 10.4151 43.6002 10.4151C41.534 10.4151 40.2269 11.9331 40.2269 13.9993C40.2269 16.0655 41.534 17.5835 43.6002 17.5835C45.6664 17.5835 46.9735 16.1076 46.9735 13.9993ZM33.4802 8.47548V20.2821C33.4802 20.9568 33.1429 21.2519 32.6369 21.2519C31.8779 21.2519 30.8237 20.6194 30.0648 19.4388C28.9684 20.7459 27.2818 21.5049 25.3843 21.5049C23.4868 21.5049 21.9688 20.8303 20.8303 19.8183C19.5231 18.5533 18.8063 16.6136 18.8063 13.8306V8.47548C18.8063 7.46348 19.1858 7.04181 20.2821 7.04181H21.7579C22.8543 7.04181 23.2338 7.46348 23.2338 8.47548V13.4511C23.2338 15.1378 23.5289 16.0233 24.0771 16.6136C24.5409 17.1196 25.2156 17.3726 26.0589 17.3726C26.9023 17.3726 27.7034 17.0353 28.1673 16.4871C28.7154 15.8968 29.0106 14.9691 29.0106 13.5355V8.47548C29.0106 7.42131 29.4323 7.04181 30.4864 7.04181H31.9622C33.0164 6.99965 33.4802 7.42131 33.4802 8.47548ZM15.7703 1.1385V20.2821C15.7703 20.9568 15.433 21.2519 14.927 21.2519C14.168 21.2519 13.1138 20.6194 12.3548 19.4809C11.4271 20.5773 9.52964 21.5471 7.33698 21.5471C2.95166 21.5471 0 18.3425 0 13.9993C0 9.74047 2.99382 6.45148 7.33698 6.45148C8.93931 6.45148 10.3308 6.95748 11.385 7.67431V5.65032C11.385 2.15049 13.3668 0.168666 14.9691 0.168666C15.4751 0.168666 15.7703 0.505999 15.7703 1.1385ZM11.385 13.9993C11.385 11.8488 9.86697 10.4151 7.96948 10.4151C6.02982 10.4151 4.51182 11.8488 4.51182 13.9993C4.51182 16.1498 6.02982 17.5835 7.96948 17.5835C9.86697 17.5835 11.385 16.192 11.385 13.9993Z" fill="#58CC02"/>
</g>
<defs>
<clipPath id="clip0_42_23554">
<rect width="119.5" height="27.9986" fill="white"/>
</clipPath>
</defs>
</svg>
