<svg width="21" height="29" viewBox="0 0 21 29" fill="none" xmlns="http://www.w3.org/2000/svg">
<g clip-path="url(#clip0_7_7789)">
<path fill-rule="evenodd" clip-rule="evenodd" d="M13.3975 2.73773C13.2078 0.872606 10.8132 0.230962 9.71634 1.75137L0.68894 14.2651C-0.145962 15.4224 0.436096 17.0573 1.81453 17.4266L6.94993 18.8026L7.70854 26.2623C7.89821 28.1274 10.2929 28.7691 11.3897 27.2486L20.4171 14.7349C21.252 13.5776 20.67 11.9427 19.2915 11.5734L14.1561 10.1974L13.3975 2.73773Z" fill="#FFD900"/>
<path d="M2.46019 15.92C1.9932 15.794 1.9481 15.1491 2.39301 14.9593L5.96213 13.4364C6.28438 13.2989 6.64606 13.5201 6.67049 13.8696L6.8477 16.4038C6.87214 16.7533 6.54476 17.0226 6.20651 16.9313L2.46019 15.92Z" fill="#F7C100"/>
<path d="M18.8175 12.8307C19.2844 12.9567 19.3296 13.6016 18.8846 13.7914L15.3156 15.3142C14.9933 15.4517 14.6316 15.2305 14.6072 14.881L14.43 12.3469C14.4055 11.9974 14.7329 11.7281 15.0711 11.8194L18.8175 12.8307Z" fill="#FFEF8F"/>
</g>
<defs>
<clipPath id="clip0_7_7789">
<rect width="21" height="28.625" fill="white" transform="translate(0 0.1875)"/>
</clipPath>
</defs>
</svg>
