<svg width="36" height="36" viewBox="0 0 36 36" fill="none" xmlns="http://www.w3.org/2000/svg">
<mask id="mask0_42_22616" style="mask-type:luminance" maskUnits="userSpaceOnUse" x="0" y="0" width="36" height="36">
<path d="M36 0H0V36H36V0Z" fill="white"/>
</mask>
<g mask="url(#mask0_42_22616)">
<path d="M14.4141 19.6162L21.1917 15.7031" stroke="#AFAFAF" stroke-width="2.34783"/>
<path d="M23.4818 7.14536C22.5093 5.46094 20.3554 4.88382 18.671 5.85632C16.9866 6.82882 16.4095 8.98268 17.382 10.6671L24.0341 22.189C25.0066 23.8734 27.1605 24.4506 28.8449 23.4781C30.5293 22.5056 31.1065 20.3517 30.134 18.6673L23.4818 7.14536Z" fill="#1CB0F6"/>
<path d="M11.9623 13.8016C10.9898 12.1172 8.8359 11.5401 7.15148 12.5126C5.46706 13.4851 4.88993 15.6389 5.86243 17.3234L12.5146 28.8453C13.4871 30.5297 15.641 31.1068 17.3254 30.1343C19.0098 29.1618 19.5869 27.0079 18.6144 25.3235L11.9623 13.8016Z" fill="#1CB0F6"/>
<path d="M29.7943 7.12193C28.8218 5.4375 26.6679 4.86038 24.9835 5.83288C23.2991 6.80538 22.722 8.95924 23.6945 10.6437L27.2162 16.7435C28.1887 18.4279 30.3426 19.005 32.027 18.0325C33.7114 17.06 34.2885 14.9062 33.316 13.2218L29.7943 7.12193Z" fill="#1CB0F6"/>
<path d="M8.78258 19.2469C7.81007 17.5625 5.65621 16.9854 3.97179 17.9579C2.28737 18.9304 1.71024 21.0842 2.68274 22.7687L6.20448 28.8685C7.17699 30.5529 9.33085 31.13 11.0153 30.1575C12.6997 29.185 13.2768 27.0312 12.3043 25.3468L8.78258 19.2469Z" fill="#1CB0F6"/>
<path opacity="0.3" d="M6.67102 20.3505C6.34685 19.7891 5.62889 19.5967 5.06742 19.9209C4.50595 20.245 4.31357 20.963 4.63774 21.5245L5.42035 22.88C5.74451 23.4414 6.46247 23.6338 7.02394 23.3097C7.58542 22.9855 7.77779 22.2675 7.45362 21.7061L6.67102 20.3505Z" fill="white"/>
<path opacity="0.3" d="M28.5851 8.60835C28.2609 8.04688 27.543 7.8545 26.9815 8.17867C26.42 8.50284 26.2276 9.22079 26.5518 9.78226L27.3344 11.1378C27.6586 11.6993 28.3765 11.8916 28.938 11.5675C29.4995 11.2433 29.6919 10.5253 29.3677 9.96387L28.5851 8.60835Z" fill="white"/>
<path opacity="0.3" d="M9.80383 14.8662C9.47966 14.3047 8.76171 14.1123 8.20023 14.4365C7.63876 14.7606 7.44638 15.4786 7.77055 16.0401L8.94446 18.0734C9.26863 18.6348 9.98658 18.8272 10.5481 18.503C11.1095 18.1789 11.3019 17.4609 10.9777 16.8994L9.80383 14.8662Z" fill="white"/>
<path opacity="0.3" d="M21.5421 8.60835C21.2179 8.04688 20.5 7.8545 19.9385 8.17867C19.377 8.50284 19.1847 9.22079 19.5088 9.78226L20.6827 11.8155C21.0069 12.377 21.7249 12.5694 22.2863 12.2452C22.8478 11.9211 23.0402 11.2031 22.716 10.6416L21.5421 8.60835Z" fill="white"/>
</g>
</svg>
