<svg width="36" height="36" viewBox="0 0 36 36" fill="none" xmlns="http://www.w3.org/2000/svg">
<path d="M31.304 28.1743V13.3047H4.69531V28.1743C4.69531 29.9031 6.05681 31.3047 7.7363 31.3047H28.263C29.9425 31.3047 31.304 29.9031 31.304 28.1743Z" fill="#A56644"/>
<path d="M3.12891 7.82575C3.12891 6.09686 4.53045 4.69531 6.25934 4.69531H13.3028V13.304H3.12891V7.82575Z" fill="#EA2B2B"/>
<path d="M3.12891 13.3047H13.3028V13.696C13.3028 16.5055 11.0253 18.7829 8.21586 18.7829C5.40641 18.7829 3.12891 16.5055 3.12891 13.696V13.3047Z" fill="#FF4945"/>
<path d="M13.3047 13.3047H22.696V13.696C22.696 16.5055 20.5937 18.7829 18.0003 18.7829C15.407 18.7829 13.3047 16.5055 13.3047 13.696V13.3047Z" fill="white"/>
<path d="M22.6953 13.3047H32.8692V13.696C32.8692 16.5055 30.5918 18.7829 27.7823 18.7829C24.9728 18.7829 22.6953 16.5055 22.6953 13.696V13.3047Z" fill="#FF4945"/>
<path d="M13.3047 4.69531H22.696V13.304H13.3047V4.69531Z" fill="#D0D0D0"/>
<path d="M22.6953 4.69531H29.7388C31.4677 4.69531 32.8692 6.09686 32.8692 7.82575V13.304H22.6953V4.69531Z" fill="#EA2B2B"/>
<path d="M8.60938 23.4793C8.60938 22.6148 9.31012 21.9141 10.1746 21.9141H14.0876C14.9521 21.9141 15.6529 22.6148 15.6529 23.4793V31.3054H8.60938V23.4793Z" fill="#B9E8FF"/>
<path d="M18.7812 23.4793C18.7812 22.6148 19.482 21.9141 20.3465 21.9141H26.6073C27.4718 21.9141 28.1726 22.6148 28.1726 23.4793V26.6097C28.1726 27.4742 27.4718 28.1749 26.6073 28.1749H20.3465C19.482 28.1749 18.7812 27.4742 18.7812 26.6097V23.4793Z" fill="#B9E8FF"/>
</svg>
