<svg width="36" height="36" viewBox="0 0 36 36" fill="none" xmlns="http://www.w3.org/2000/svg">
<path d="M27.6602 28.4224C27.3262 30.1757 25.7933 31.4443 24.0085 31.4443H11.972C10.1871 31.4443 8.6542 30.1757 8.32023 28.4224L5.60547 14.1699L17.8895 5.08594L30.3755 14.1668L27.6602 28.4224Z" fill="#FFC800"/>
<path opacity="0.5" fill-rule="evenodd" clip-rule="evenodd" d="M14.8008 25.9969C14.8008 25.3342 15.338 24.7969 16.0007 24.7969H20.8007C21.4635 24.7969 22.0008 25.3342 22.0008 25.9969C22.0008 26.6596 21.4635 27.1969 20.8007 27.1969H16.0007C15.338 27.1969 14.8008 26.6596 14.8008 25.9969Z" fill="#945151"/>
<path d="M21.912 18.335C21.912 20.4961 20.16 22.2479 17.9989 22.2479C15.8378 22.2479 14.0859 20.4961 14.0859 18.335C14.0859 16.1738 15.8378 14.4219 17.9989 14.4219C20.16 14.4219 21.912 16.1738 21.912 18.335Z" fill="#945151"/>
<path d="M18.191 3.20331C18.7249 3.20071 19.2651 3.36224 19.7295 3.69939L33.6901 13.764C34.8518 14.6081 35.1093 16.2341 34.2653 17.3957C33.4214 18.5571 31.7962 18.8148 30.6345 17.9715L18.1816 8.99394L5.72999 17.9707L5.72901 17.9715C4.56738 18.8146 2.9421 18.557 2.0983 17.3955C1.25428 16.2338 1.5118 14.6079 2.6735 13.7639L2.67529 13.7625L16.6333 3.69982C17.1031 3.35877 17.6512 3.19686 18.191 3.20331Z" fill="#FF4B4B"/>
</svg>
