<svg width="36" height="36" viewBox="0 0 36 36" fill="none" xmlns="http://www.w3.org/2000/svg">
<g clip-path="url(#clip0_42_22649)">
<path d="M26.6228 20.7477C29.5048 15.053 27.2246 8.10022 21.5299 5.21826C15.8352 2.33629 8.88246 4.61646 6.00049 10.3112C3.11853 16.0059 5.3987 22.9586 11.0934 25.8406C16.7881 28.7225 23.7408 26.4424 26.6228 20.7477Z" fill="#84D8FF"/>
<path d="M28.0277 21.4631C31.2913 15.0143 28.7295 7.14583 22.3075 3.85033L22.2403 3.81631C21.7226 3.55431 21.5153 2.92225 21.7773 2.40454C22.0393 1.88686 22.6713 1.67958 23.189 1.94152L23.2828 1.989C30.7207 5.81654 33.6856 14.9365 29.9024 22.4119C27.7496 26.666 23.8733 29.4745 19.5522 30.4183V32.9541H21.459C21.9856 32.9541 22.4124 33.3809 22.4124 33.9075C22.4124 34.4341 21.9856 34.861 21.459 34.861H14.7849C14.2582 34.861 13.8314 34.4341 13.8314 33.9075C13.8314 33.3809 14.2582 32.9541 14.7849 32.9541H16.6918V30.7649C14.2849 30.8273 11.8289 30.3186 9.52581 29.1724L9.4319 29.1253C8.9142 28.8634 8.70689 28.2313 8.96891 27.7136C9.23085 27.1959 9.86296 26.9886 10.3807 27.2506C16.8519 30.5256 24.7527 27.9344 28.0277 21.4631Z" fill="#FF9600"/>
<path fill-rule="evenodd" clip-rule="evenodd" d="M17.1681 27.0538C15.1379 27.2068 13.0414 26.8252 11.0923 25.8388C10.1555 25.3647 9.31106 24.7804 8.56688 24.1097C8.48932 23.5503 8.57627 22.9623 8.85214 22.4209C9.56932 21.0133 11.2918 20.4537 12.6993 21.1709L16.0974 22.9023C17.5049 23.6195 18.0645 25.3419 17.3474 26.7495C17.2932 26.8558 17.2333 26.9573 17.1681 27.0538ZM27.677 13.4378C28.1203 15.8388 27.8093 18.3992 26.6217 20.7459C25.9122 22.1477 24.956 23.3427 23.8327 24.3047L22.8428 23.8003C20.0276 22.3659 18.9083 18.921 20.3427 16.106C21.7164 13.4098 24.9344 12.2693 27.677 13.4378ZM19.0323 4.29366C20.6502 5.14031 21.2888 7.13389 20.4578 8.76498C19.6211 10.4071 17.6116 11.0601 15.9694 10.2234L15.8584 10.1668C15.8165 11.0007 15.6021 11.8394 15.1986 12.6315C13.666 15.6391 9.98559 16.8349 6.97794 15.3025C6.14428 14.8777 5.44981 14.2879 4.91406 13.5931C5.10374 12.4778 5.46172 11.3717 5.99935 10.3094C8.47054 5.42641 13.9346 3.05393 19.0323 4.29366Z" fill="#58CC02"/>
</g>
<defs>
<clipPath id="clip0_42_22649">
<rect width="36" height="36" fill="white"/>
</clipPath>
</defs>
</svg>
